<svg width="296px" height="38px" viewBox="0 0 296 38" version="1.1" xmlns="http://www.w3.org/2000/svg" xmlns:xlink="http://www.w3.org/1999/xlink">
    <!-- Generator: Sketch 55.2 (78181) - https://sketchapp.com -->
    <title>ILLUS/LOGO/DUKE LOCK UP</title>
    <desc>Created with Sketch.</desc>
    <g id="Symbols" stroke="none" stroke-width="1" fill="none" fill-rule="evenodd">
        <g id="Nav" transform="translate(-29.000000, -28.000000)">
            <g id="Group-6">
                <g id="ILLUS/LOGO/DUKE-LOCK-UP" transform="translate(29.000000, 28.000000)">
                    <path d="M153.690541,2.65647882 L153.690541,9.70547724 C153.690541,10.9473789 153.316784,11.9234989 152.56926,12.6338666 C151.821735,13.3442344 150.794524,13.6994129 149.487594,13.6994129 C148.180664,13.6994129 147.169541,13.3417506 146.454194,12.6264153 C145.738848,11.9110799 145.381181,10.9275086 145.381181,9.67567175 L145.381181,2.65647882 L146.64355,2.65647882 L146.64355,9.76508822 C146.64355,10.6741602 146.891071,11.3720985 147.38612,11.8589239 C147.881169,12.3457493 148.608881,12.5891584 149.569276,12.5891584 C150.485117,12.5891584 151.190552,12.3445075 151.685601,11.8551982 C152.180651,11.365889 152.428172,10.6642251 152.428172,9.75018548 L152.428172,2.65647882 L153.690541,2.65647882 Z M166.934556,13.5503855 L165.49397,13.5503855 L159.560834,4.40755137 L159.501428,4.40755137 C159.580636,5.48055438 159.62024,6.46412572 159.62024,7.35829489 L159.62024,13.5503855 L158.454404,13.5503855 L158.454404,2.65647882 L159.880139,2.65647882 L165.798423,11.7620561 L165.857829,11.7620561 C165.847928,11.6279307 165.825651,11.1969973 165.790998,10.4692429 C165.756344,9.74148857 165.743968,9.22113959 165.753869,8.90818038 L165.753869,2.65647882 L166.934556,2.65647882 L166.934556,13.5503855 Z M180.475599,7.99911293 C180.475599,9.7973865 179.98922,11.172151 179.016448,12.1234476 C178.043677,13.0747443 176.643946,13.5503855 174.817214,13.5503855 L171.809805,13.5503855 L171.809805,2.65647882 L175.136519,2.65647882 C176.824637,2.65647882 178.136498,3.1259106 179.072141,4.06478823 C180.007784,5.00366587 180.475599,6.31509432 180.475599,7.99911293 Z M179.138973,8.04382117 C179.138973,6.6230857 178.78378,5.55258255 178.073384,4.8322796 C177.362989,4.11197666 176.307312,3.75183059 174.906323,3.75183059 L173.072174,3.75183059 L173.072174,12.4550337 L174.609294,12.4550337 C176.114244,12.4550337 177.245415,12.0837107 178.00284,11.3410535 C178.760266,10.5983963 179.138973,9.49932988 179.138973,8.04382117 Z M190.838442,13.5503855 L184.786495,13.5503855 L184.786495,2.65647882 L190.838442,2.65647882 L190.838442,3.78163608 L186.048864,3.78163608 L186.048864,7.29123254 L190.548839,7.29123254 L190.548839,8.40893842 L186.048864,8.40893842 L186.048864,12.4177768 L190.838442,12.4177768 L190.838442,13.5503855 Z M196.396855,9.01995097 L196.396855,13.5503855 L195.134486,13.5503855 L195.134486,2.65647882 L198.112192,2.65647882 C199.443875,2.65647882 200.42777,2.91230672 201.063909,3.42397019 C201.700047,3.93563367 202.018111,4.70560113 202.018111,5.73389568 C202.018111,7.17450157 201.2904,8.14813785 199.834955,8.65483372 L202.782959,13.5503855 L201.290393,13.5503855 L198.661694,9.01995097 L196.396855,9.01995097 Z M196.396855,7.93205058 L198.127044,7.93205058 C199.018132,7.93205058 199.671588,7.75446131 200.087429,7.39927744 C200.50327,7.04409358 200.711188,6.51132577 200.711188,5.80095803 C200.711188,5.08065509 200.499558,4.56154799 200.07629,4.24362117 C199.653023,3.92569436 198.973578,3.76673333 198.037935,3.76673333 L196.396855,3.76673333 L196.396855,7.93205058 Z M211.200268,7.84263411 L214.890841,7.84263411 L214.890841,13.14056 C214.316584,13.3243614 213.732435,13.4634523 213.138376,13.5578368 C212.544317,13.6522214 211.856208,13.6994129 211.074031,13.6994129 C209.430467,13.6994129 208.150784,13.2088691 207.234943,12.2277668 C206.319102,11.2466646 205.861188,9.87190007 205.861188,8.10343215 C205.861188,6.97081786 206.08767,5.97855334 206.54064,5.12660882 C206.99361,4.2746643 207.645827,3.62391761 208.497312,3.17434921 C209.348797,2.72478082 210.346306,2.5 211.48987,2.5 C212.648285,2.5 213.727476,2.71360388 214.727476,3.14081804 L214.23738,4.25852392 C213.257182,3.84124497 212.314127,3.63260863 211.408187,3.63260863 C210.086406,3.63260863 209.054243,4.02752742 208.31167,4.81737686 C207.569096,5.6072263 207.197814,6.70256711 207.197814,8.10343215 C207.197814,9.57384368 207.555482,10.6890546 208.270828,11.4490984 C208.986174,12.2091422 210.036901,12.5891584 211.423039,12.5891584 C212.175513,12.5891584 212.910651,12.5022266 213.628472,12.3283604 L213.628472,8.97524273 L211.200268,8.97524273 L211.200268,7.84263411 Z M220.649749,9.01995097 L220.649749,13.5503855 L219.38738,13.5503855 L219.38738,2.65647882 L222.365086,2.65647882 C223.696769,2.65647882 224.680664,2.91230672 225.316802,3.42397019 C225.952941,3.93563367 226.271005,4.70560113 226.271005,5.73389568 C226.271005,7.17450157 225.543294,8.14813785 224.087849,8.65483372 L227.035852,13.5503855 L225.543286,13.5503855 L222.914588,9.01995097 L220.649749,9.01995097 Z M220.649749,7.93205058 L222.379937,7.93205058 C223.271026,7.93205058 223.924481,7.75446131 224.340323,7.39927744 C224.756164,7.04409358 224.964082,6.51132577 224.964082,5.80095803 C224.964082,5.08065509 224.752451,4.56154799 224.329184,4.24362117 C223.905917,3.92569436 223.226472,3.76673333 222.290829,3.76673333 L220.649749,3.76673333 L220.649749,7.93205058 Z M237.502655,13.5503855 L236.151177,10.0854972 L231.799716,10.0854972 L230.46309,13.5503855 L229.185869,13.5503855 L233.477925,2.61177059 L234.5398,2.61177059 L238.809578,13.5503855 L237.502655,13.5503855 Z M235.757615,8.94543724 L234.495246,5.56996548 C234.331879,5.14275132 234.163565,4.6186767 233.990298,3.99772588 C233.881387,4.47461611 233.725449,4.99869073 233.522479,5.56996548 L232.245258,8.94543724 L235.757615,8.94543724 Z M250.858055,7.99911293 C250.858055,9.7973865 250.371677,11.172151 249.398905,12.1234476 C248.426133,13.0747443 247.026402,13.5503855 245.199671,13.5503855 L242.192261,13.5503855 L242.192261,2.65647882 L245.518976,2.65647882 C247.207094,2.65647882 248.518955,3.1259106 249.454598,4.06478823 C250.390241,5.00366587 250.858055,6.31509432 250.858055,7.99911293 Z M249.521429,8.04382117 C249.521429,6.6230857 249.166237,5.55258255 248.455841,4.8322796 C247.745445,4.11197666 246.689769,3.75183059 245.288779,3.75183059 L243.454631,3.75183059 L243.454631,12.4550337 L244.991751,12.4550337 C246.496701,12.4550337 247.627871,12.0837107 248.385297,11.3410535 C249.142722,10.5983963 249.521429,9.49932988 249.521429,8.04382117 Z M263.366926,2.65647882 L263.366926,9.70547724 C263.366926,10.9473789 262.993169,11.9234989 262.245645,12.6338666 C261.498121,13.3442344 260.470909,13.6994129 259.163979,13.6994129 C257.857049,13.6994129 256.845926,13.3417506 256.13058,12.6264153 C255.415233,11.9110799 255.057566,10.9275086 255.057566,9.67567175 L255.057566,2.65647882 L256.319935,2.65647882 L256.319935,9.76508822 C256.319935,10.6741602 256.567456,11.3720985 257.062505,11.8589239 C257.557554,12.3457493 258.285266,12.5891584 259.245661,12.5891584 C260.161503,12.5891584 260.866937,12.3445075 261.361986,11.8551982 C261.857036,11.365889 262.104557,10.6642251 262.104557,9.75018548 L262.104557,2.65647882 L263.366926,2.65647882 Z M274.955009,13.5503855 L273.603532,10.0854972 L269.25207,10.0854972 L267.915444,13.5503855 L266.638223,13.5503855 L270.930279,2.61177059 L271.992154,2.61177059 L276.261933,13.5503855 L274.955009,13.5503855 Z M273.20997,8.94543724 L271.9476,5.56996548 C271.784234,5.14275132 271.61592,4.6186767 271.442653,3.99772588 C271.333742,4.47461611 271.177803,4.99869073 270.974833,5.56996548 L269.697613,8.94543724 L273.20997,8.94543724 Z M282.986182,13.5503855 L281.723812,13.5503855 L281.723812,3.78163608 L278.285713,3.78163608 L278.285713,2.65647882 L286.424282,2.65647882 L286.424282,3.78163608 L282.986182,3.78163608 L282.986182,13.5503855 Z M296,13.5503855 L289.948053,13.5503855 L289.948053,2.65647882 L296,2.65647882 L296,3.78163608 L291.210422,3.78163608 L291.210422,7.29123254 L295.710398,7.29123254 L295.710398,8.40893842 L291.210422,8.40893842 L291.210422,12.4177768 L296,12.4177768 L296,13.5503855 Z M152.316786,35.3509725 L150.965308,31.8860843 L146.613847,31.8860843 L145.277221,35.3509725 L144,35.3509725 L148.292056,24.4123577 L149.353931,24.4123577 L153.62371,35.3509725 L152.316786,35.3509725 Z M150.571746,30.7460243 L149.309377,27.3705526 C149.146011,26.9433384 148.977696,26.4192638 148.804429,25.798313 C148.695518,26.2752032 148.53958,26.7992778 148.33661,27.3705526 L147.059389,30.7460243 L150.571746,30.7460243 Z M165.672187,29.7997 C165.672187,31.5979736 165.185808,32.9727381 164.213036,33.9240347 C163.240264,34.8753314 161.840534,35.3509725 160.013802,35.3509725 L157.006393,35.3509725 L157.006393,24.4570659 L160.333107,24.4570659 C162.021225,24.4570659 163.333086,24.9264977 164.268729,25.8653753 C165.204372,26.8042529 165.672187,28.1156814 165.672187,29.7997 Z M164.33556,29.8444082 C164.33556,28.4236728 163.980368,27.3531696 163.269972,26.6328667 C162.559576,25.9125637 161.5039,25.5524177 160.10291,25.5524177 L158.268762,25.5524177 L158.268762,34.2556208 L159.805882,34.2556208 C161.310832,34.2556208 162.442002,33.8842978 163.199428,33.1416406 C163.956853,32.3989834 164.33556,31.299917 164.33556,29.8444082 Z M174.787511,35.3509725 L171.104363,25.6939937 L171.044958,25.6939937 C171.114264,26.4590051 171.148917,27.3680635 171.148917,28.4211961 L171.148917,35.3509725 L169.983082,35.3509725 L169.983082,24.4570659 L171.884062,24.4570659 L175.322162,33.4434212 L175.381567,33.4434212 L178.84937,24.4570659 L180.735498,24.4570659 L180.735498,35.3509725 L179.473129,35.3509725 L179.473129,28.3317796 C179.473129,27.5270274 179.507782,26.6527417 179.577089,25.7088965 L179.517683,25.7088965 L175.804832,35.3509725 L174.787511,35.3509725 Z M185.603322,35.3509725 L185.603322,24.4570659 L186.865691,24.4570659 L186.865691,35.3509725 L185.603322,35.3509725 Z M197.859718,32.4523886 C197.859718,33.4111367 197.513189,34.1587503 196.82012,34.6952518 C196.127051,35.2317533 195.186472,35.5 193.998354,35.5 C192.711225,35.5 191.721142,35.3335877 191.028073,35.000758 L191.028073,33.7787329 C191.473617,33.967502 191.958758,34.116528 192.48351,34.2258153 C193.008263,34.3351026 193.528056,34.3897455 194.042908,34.3897455 C194.884491,34.3897455 195.518145,34.2295426 195.943887,33.909132 C196.36963,33.5887213 196.582498,33.1428853 196.582498,32.5716106 C196.582498,32.1940725 196.507004,31.8848436 196.356014,31.6439147 C196.205024,31.4029858 195.952552,31.1806887 195.598592,30.9770169 C195.244632,30.773345 194.706274,30.5423548 193.983502,30.2840392 C192.973602,29.9214039 192.252078,29.4917124 191.81891,28.9949518 C191.385742,28.4981911 191.169161,27.8499282 191.169161,27.0501435 C191.169161,26.210618 191.483513,25.542485 192.112225,25.0457243 C192.740938,24.5489637 193.572608,24.3005871 194.607261,24.3005871 C195.686468,24.3005871 196.679027,24.4992884 197.584967,24.8966969 L197.191405,25.9995 C196.295366,25.6219619 195.424092,25.4331957 194.577558,25.4331957 C193.909242,25.4331957 193.386973,25.5772541 193.010735,25.8653753 C192.634498,26.1534965 192.446382,26.5533828 192.446382,27.0650463 C192.446382,27.4425844 192.515688,27.7518133 192.654301,27.9927422 C192.792915,28.2336711 193.026823,28.4547263 193.35603,28.6559143 C193.685238,28.8571024 194.188943,29.0793994 194.867161,29.3228122 C196.005774,29.7301559 196.789178,30.1672987 197.217395,30.6342537 C197.645613,31.1012087 197.859718,31.7072477 197.859718,32.4523886 Z M208.096324,32.4523886 C208.096324,33.4111367 207.749795,34.1587503 207.056726,34.6952518 C206.363657,35.2317533 205.423077,35.5 204.234959,35.5 C202.947831,35.5 201.957748,35.3335877 201.264679,35.000758 L201.264679,33.7787329 C201.710223,33.967502 202.195364,34.116528 202.720116,34.2258153 C203.244868,34.3351026 203.764662,34.3897455 204.279513,34.3897455 C205.121097,34.3897455 205.754751,34.2295426 206.180493,33.909132 C206.606235,33.5887213 206.819103,33.1428853 206.819103,32.5716106 C206.819103,32.1940725 206.74361,31.8848436 206.59262,31.6439147 C206.44163,31.4029858 206.189158,31.1806887 205.835198,30.9770169 C205.481238,30.773345 204.94288,30.5423548 204.220108,30.2840392 C203.210207,29.9214039 202.488684,29.4917124 202.055516,28.9949518 C201.622348,28.4981911 201.405767,27.8499282 201.405767,27.0501435 C201.405767,26.210618 201.720118,25.542485 202.348831,25.0457243 C202.977544,24.5489637 203.809214,24.3005871 204.843867,24.3005871 C205.923074,24.3005871 206.915633,24.4992884 207.821573,24.8966969 L207.428011,25.9995 C206.531972,25.6219619 205.660698,25.4331957 204.814164,25.4331957 C204.145847,25.4331957 203.623578,25.5772541 203.247341,25.8653753 C202.871103,26.1534965 202.682988,26.5533828 202.682988,27.0650463 C202.682988,27.4425844 202.752293,27.7518133 202.890907,27.9927422 C203.029521,28.2336711 203.263428,28.4547263 203.592636,28.6559143 C203.921844,28.8571024 204.425549,29.0793994 205.103766,29.3228122 C206.24238,29.7301559 207.025783,30.1672987 207.454001,30.6342537 C207.882219,31.1012087 208.096324,31.7072477 208.096324,32.4523886 Z M212.206726,35.3509725 L212.206726,24.4570659 L213.469095,24.4570659 L213.469095,35.3509725 L212.206726,35.3509725 Z M227.760134,29.8891165 C227.760134,31.6327464 227.320785,33.0037852 226.442072,34.0022741 C225.56336,35.000763 224.341844,35.5 222.777488,35.5 C221.178479,35.5 219.944587,35.0094562 219.075776,34.0283539 C218.206964,33.0472516 217.772565,31.6625521 217.772565,29.8742137 C217.772565,28.1007871 218.208202,26.7260137 219.079489,25.749879 C219.950775,24.7737444 221.18838,24.2856843 222.79234,24.2856843 C224.351745,24.2856843 225.569548,24.7824375 226.445785,25.7759588 C227.322022,26.7694801 227.760134,28.140519 227.760134,29.8891165 Z M219.109192,29.8891165 C219.109192,31.3644956 219.422306,32.4834322 220.048543,33.2459598 C220.67478,34.0084874 221.58442,34.3897455 222.777488,34.3897455 C223.980458,34.3897455 224.88886,34.0097293 225.502721,33.2496855 C226.116582,32.4896417 226.423508,31.3694632 226.423508,29.8891165 C226.423508,28.4236726 226.11782,27.3121873 225.506434,26.5546273 C224.895048,25.7970673 223.990359,25.418293 222.79234,25.418293 C221.58937,25.418293 220.67478,25.799551 220.048543,26.5620786 C219.422306,27.3246062 219.109192,28.4336078 219.109192,29.8891165 Z M240.551181,35.3509725 L239.110595,35.3509725 L233.177459,26.2081384 L233.118054,26.2081384 C233.197262,27.2811415 233.236865,28.2647128 233.236865,29.158882 L233.236865,35.3509725 L232.07103,35.3509725 L232.07103,24.4570659 L233.496765,24.4570659 L239.415049,33.5626431 L239.474455,33.5626431 C239.464554,33.4285178 239.442277,32.9975844 239.407623,32.26983 C239.37297,31.5420756 239.360594,31.0217267 239.370495,30.7087675 L239.370495,24.4570659 L240.551181,24.4570659 L240.551181,35.3509725 Z M251.552634,32.4523886 C251.552634,33.4111367 251.206105,34.1587503 250.513036,34.6952518 C249.819967,35.2317533 248.879388,35.5 247.691269,35.5 C246.404141,35.5 245.414058,35.3335877 244.720989,35.000758 L244.720989,33.7787329 C245.166533,33.967502 245.651674,34.116528 246.176426,34.2258153 C246.701179,34.3351026 247.220972,34.3897455 247.735824,34.3897455 C248.577407,34.3897455 249.211061,34.2295426 249.636803,33.909132 C250.062546,33.5887213 250.275414,33.1428853 250.275414,32.5716106 C250.275414,32.1940725 250.19992,31.8848436 250.04893,31.6439147 C249.89794,31.4029858 249.645468,31.1806887 249.291508,30.9770169 C248.937548,30.773345 248.39919,30.5423548 247.676418,30.2840392 C246.666518,29.9214039 245.944994,29.4917124 245.511826,28.9949518 C245.078658,28.4981911 244.862077,27.8499282 244.862077,27.0501435 C244.862077,26.210618 245.176429,25.542485 245.805141,25.0457243 C246.433854,24.5489637 247.265524,24.3005871 248.300177,24.3005871 C249.379384,24.3005871 250.371943,24.4992884 251.277883,24.8966969 L250.884321,25.9995 C249.988282,25.6219619 249.117008,25.4331957 248.270474,25.4331957 C247.602158,25.4331957 247.079889,25.5772541 246.703651,25.8653753 C246.327414,26.1534965 246.139298,26.5533828 246.139298,27.0650463 C246.139298,27.4425844 246.208604,27.7518133 246.347217,27.9927422 C246.485831,28.2336711 246.719739,28.4547263 247.048946,28.6559143 C247.378154,28.8571024 247.881859,29.0793994 248.560077,29.3228122 C249.69869,29.7301559 250.482094,30.1672987 250.910311,30.6342537 C251.338529,31.1012087 251.552634,31.7072477 251.552634,32.4523886 Z" id="UNDERGRADUATEADMISSIONS" fill="#193AB3" fill-rule="nonzero"></path>
                    <path d="M70.702945,37.5 C70.5569122,37.5 70.4117283,37.4637825 70.2656954,37.3941775 L66.5543548,35.9894473 C66.155651,35.8442259 65.8654871,35.7278394 65.6841347,35.6380047 C65.5034614,35.5474946 65.4135052,35.4124049 65.4135052,35.2327356 C65.4135052,34.9801179 65.5482901,34.8167472 65.8199792,34.7451496 C66.090989,34.6735521 66.400667,34.5748893 66.7443333,34.4485805 C67.0886993,34.3222716 67.3970256,34.1054999 67.6686875,33.7995218 C67.9410558,33.4928682 68.0762211,32.9793922 68.0762211,32.2586887 L68.0762211,5.11916919 C68.0762211,4.54301165 68.0122383,4.11052199 67.8851897,3.82210549 C67.7588543,3.53436444 67.5686312,3.31653231 67.3152811,3.17198634 C67.0612519,3.02879126 66.7703747,2.9206317 66.445061,2.84903416 C66.1190342,2.77743663 65.7755173,2.68722373 65.4134576,2.57780108 C65.1241088,2.50687899 64.8886698,2.42527806 64.7066585,2.33611886 C64.525306,2.24560876 64.4349694,2.07438258 64.4349694,1.8210894 C64.4349694,1.56982257 64.6070709,1.41708341 64.9507576,1.36304753 C65.2951235,1.31036255 65.5579351,1.28178432 65.7392672,1.28178432 C66.2106477,1.28178432 66.8190954,1.31629974 67.5614858,1.38520899 C68.3059138,1.45410474 69.0063962,1.48969412 69.6638838,1.48969412 C70.2833349,1.48969412 70.883496,1.45409798 71.4649106,1.38520899 C72.0476837,1.31631325 72.665165,1.28178432 73.317898,1.28178432 C73.6079261,1.28178432 73.888187,1.31852872 74.1605417,1.38943055 C74.4315516,1.46170353 74.5680753,1.60456088 74.5680753,1.82002895 C74.5680753,2.07264667 74.4134299,2.22471039 74.1064212,2.27807082 C73.7987334,2.33210669 73.4261118,2.43152595 72.9920885,2.57674738 C72.73738,2.64699402 72.4748604,2.79964537 72.2024921,3.03267509 C71.9314823,3.26705571 71.7970845,3.68891381 71.7970845,4.30022169 L71.7970845,11.9550792 C71.7970845,12.1340731 71.9236712,12.2252586 72.1770213,12.2252586 C72.2856969,12.2252586 72.4493013,12.1167208 72.6673318,11.9012527 L80.8723418,4.19303478 C81.2703663,3.79722197 81.4687876,3.50907565 81.4687876,3.33075726 C81.4687876,3.15041252 81.3695803,2.98847375 81.1705681,2.84527867 C80.9701974,2.70140815 80.7275451,2.61166131 80.4361925,2.57721344 C79.9654912,2.504265 79.5853303,2.42257626 79.2953022,2.33341706 C79.0059533,2.24290697 78.8622977,2.07311273 78.8622977,1.82049501 C78.8622977,1.56855273 78.987526,1.41754947 79.2422345,1.36351359 C79.4955846,1.31082861 79.9119956,1.28225038 80.491393,1.28225038 C81.1427675,1.28225038 81.7946175,1.3167658 82.4473505,1.38567505 C83.0987251,1.4545708 83.7878644,1.49016018 84.512595,1.49016018 C85.3460013,1.49016018 86.1066627,1.45456404 86.7953945,1.38567505 C87.4834471,1.31677931 88.1178411,1.28225038 88.6972181,1.28225038 C89.6392999,1.28225038 90.1097975,1.46154142 90.1097975,1.82155546 C90.1097975,2.00122475 89.993141,2.1461895 89.7574507,2.25426126 C89.5210812,2.36165757 89.2045634,2.49569356 88.806539,2.65847664 C88.4078352,2.82058427 87.9451487,3.02815634 87.4194304,3.28009862 C86.893712,3.5333918 86.3602505,3.90970441 85.8168724,4.4135687 L76.4157512,12.8944997 C76.3423951,12.9654218 76.2513793,13.0647532 76.1440621,13.1910621 C76.0347073,13.317371 75.9806208,13.4698129 75.9806208,13.6501577 C75.9806208,13.7940282 76.4517908,14.1808913 77.3932002,14.8111185 C78.3346028,15.4413119 79.4131405,16.1156797 80.6269115,16.8363832 C81.8406824,17.5564113 83.0170961,18.2314545 84.1588694,18.8616479 C85.2999635,19.4918413 86.0699304,19.8964349 86.4693133,20.0774551 C86.6493073,20.1490527 86.8936101,20.2303632 87.20267,20.3201978 C87.5103579,20.409357 87.8091344,20.5086885 88.1005345,20.6167602 C88.3892042,20.7241565 88.6324474,20.8418939 88.8328045,20.9682028 C89.0318167,21.0945117 89.1310308,21.2296014 89.1310308,21.3734719 C89.1310308,21.6612129 89.0236253,21.8422331 88.8062741,21.9138307 C88.5882436,21.9854282 88.3531918,22.0225373 88.1004938,22.0225373 C87.5557572,22.0225373 86.9123974,22.0042327 86.170007,21.9697848 C85.4269374,21.9353369 84.7097462,21.9170323 84.0230521,21.9170323 C83.296963,21.9170323 82.5636742,21.9353369 81.821963,21.9697848 C81.0795726,22.0042327 80.4184852,22.0225373 79.838429,22.0225373 C79.6570766,22.0225373 79.4856543,21.9674207 79.3226409,21.8600042 C79.1596275,21.751257 79.0785486,21.6256708 79.0785486,21.4811249 C79.0785486,21.2643059 79.1856553,21.0930797 79.404365,20.9660954 C79.621037,20.840462 79.8571484,20.7149502 80.1111641,20.5893167 C80.3651934,20.4630079 80.5992671,20.3003126 80.8179632,20.1017308 C81.033956,19.9031489 81.14272,19.6230877 81.14272,19.2637694 C81.14272,19.0827492 80.933988,18.8220734 80.5176245,18.4796413 C80.101261,18.1378643 79.5859348,17.7492788 78.9692006,17.3176672 C78.3545041,16.8840293 77.6746021,16.4341131 76.9315325,15.9646764 C76.1884629,15.4959152 75.4917842,15.0729493 74.8397304,14.6940228 C74.1876766,14.3150962 73.6169258,14.0091856 73.1278855,13.7748049 C72.6388452,13.5404243 72.3579187,13.4233623 72.2852418,13.4233623 C71.9598942,13.4233623 71.7970505,13.7119477 71.7970505,14.2887469 L71.7970505,36.5258615 C71.7970505,36.9223497 71.7340187,37.1833295 71.6049528,37.3089764 C71.4786173,37.4359607 71.3413329,37.5 71.1953,37.5 L70.7028635,37.5 L70.702945,37.5 Z M15.7728481,34.8928905 C14.0306419,34.8928905 12.4799765,34.841759 11.1201727,34.7377467 C9.75901041,34.6330522 8.40817233,34.5804956 7.06602831,34.5804956 L2.11938534,34.5804956 C1.93735366,34.5804956 1.72959981,34.5723226 1.49322353,34.5540855 C1.25753326,34.5365239 1.03241848,34.4994418 0.815067222,34.4453856 C0.597715963,34.3906743 0.407486065,34.2997792 0.245151844,34.1741458 C0.0807867462,34.0478369 0,33.877374 0,33.6612305 C0,33.372814 0.116656496,33.2002369 0.352346768,33.146201 C0.58803704,33.0928406 1.01407947,33.0299361 1.63010048,32.9583385 C1.99144695,32.9218643 2.38050571,32.8942385 2.79754843,32.8760216 C3.21459116,32.85846 3.61322696,32.8217156 3.99359166,32.7683686 C4.37327714,32.7143328 4.6900666,32.6241199 4.94341666,32.4971356 C5.19744595,32.3715021 5.32441984,32.1830115 5.32441984,31.9303938 L5.32441984,6.50718878 C5.32441984,5.71421228 5.25221167,5.10205333 5.10685802,4.66976631 C4.96218359,4.23612839 4.77263291,3.9043481 4.53694943,3.66929203 C4.30125916,3.43491141 4.0388211,3.27154069 3.74945865,3.18170604 C3.45943056,3.09119595 3.16923267,3.02753493 2.87923855,2.99173616 C2.04583231,2.84786564 1.50313339,2.6675209 1.2491041,2.45137739 C0.995074818,2.23590932 0.869167309,2.01845544 0.869167309,1.80231193 C0.869167309,1.52402716 0.995074818,1.36816743 1.2491041,1.33371956 C1.50313339,1.29927168 1.70125585,1.2819802 1.84660951,1.2819802 C2.49866328,1.2819802 3.2771204,1.31649562 4.18252424,1.38540487 C5.0886073,1.45497607 5.9410997,1.48989 6.73918635,1.48989 L19.5819289,1.48989 C21.903512,1.48989 24.0890468,1.87780681 26.1396201,2.651864 C28.1901934,3.4266034 29.9766849,4.47976265 31.5001814,5.81377338 C33.0229987,7.14710866 34.2290265,8.71448684 35.118129,10.5165834 C36.0072315,12.317329 36.4521902,14.2276323 36.4521902,16.2451969 C36.4521902,19.4887005 35.9080446,22.2906634 34.8199502,24.6511531 C33.7311562,27.0104946 32.2523526,28.9474107 30.383811,30.4610907 C28.5152694,31.9740953 26.3294629,33.0912195 23.8272065,33.811923 C21.3229125,34.5326265 18.6394395,34.8928905 15.7729839,34.8928905 L15.7728481,34.8928905 Z M14.5693334,33.2781634 C15.6961638,33.2781634 16.8963503,33.1430737 18.1692136,32.8728943 C19.4413977,32.6027149 20.6963295,32.1783982 21.9325148,31.6022406 C23.1687001,31.0254076 24.3596492,30.3053796 25.5048186,29.4408055 C26.6493088,28.5762315 27.6598563,27.5478612 28.5326575,26.3590719 C29.4061379,25.1696071 30.0955489,23.8183049 30.6042867,22.3053003 C31.1137037,20.7922958 31.3684122,19.1161028 31.3684122,17.2795584 C31.3684122,15.4409877 31.1137037,13.8099147 30.6042867,12.3867448 C30.0955489,10.9642503 29.4239335,9.7201418 28.5878104,8.65698591 C27.751008,7.59383002 26.8058017,6.68494655 25.7509689,5.92776882 C24.6961361,5.17059108 23.6421183,4.56728051 22.5872855,4.11675638 C21.5331319,3.66623225 20.5143658,3.33343879 19.532889,3.11729528 C18.550733,2.89980087 17.6966784,2.7922357 16.9699101,2.7922357 C16.0964297,2.7922357 15.2430544,2.89980087 14.4069312,3.11729528 C13.5694497,3.33343879 12.8245462,3.66621874 12.1697755,4.11675638 C11.5150048,4.56728051 10.9878601,5.13418441 10.5884772,5.81908916 C10.1890942,6.50331846 9.98885257,7.31527507 9.98885257,8.25279754 L9.98885257,31.5483398 C9.98885257,31.7280091 10.015546,31.9263816 10.0705699,32.1425251 C10.1249077,32.3579932 10.2970906,32.5475443 10.5884772,32.7103274 C10.8791845,32.872435 11.3341278,33.0079029 11.9522205,33.1166501 C12.5696339,33.2240464 13.4418237,33.2781634 14.5693334,33.2781634 L14.5693334,33.2781634 Z M99.6419747,22.908003 C97.9412011,22.908003 96.4744876,22.5465503 95.2450946,21.8251916 C94.0150223,21.1038126 92.9923846,20.1927002 92.1779966,19.0917191 C91.3636086,17.9907381 90.7591004,16.7641237 90.3610759,15.410525 C89.9630514,14.0576017 89.7635773,12.750744 89.7635773,11.4876554 C89.7635773,8.09487769 90.5817689,5.41672451 92.2193748,3.44981856 C93.8563015,1.48358806 96.1791072,0.5 99.1868411,0.5 C100.599624,0.5 101.80409,0.708328572 102.80051,1.12372938 C103.79625,1.53913019 104.619536,2.01066077 105.272269,2.53480878 C105.924323,3.05895679 106.395499,3.54771131 106.684848,3.99755999 C106.976235,4.44808412 107.121032,4.72677416 107.121032,4.83552136 C107.121032,5.12326241 106.956069,5.26717346 106.630721,5.26717346 C106.41337,5.26717346 106.21321,5.14972648 106.033216,4.91467041 C105.851184,4.68096524 105.597623,4.42986727 105.272282,4.15897866 C104.946256,3.88812383 104.493893,3.64652942 103.913837,3.42969695 C103.333102,3.21287799 102.519393,3.10569107 101.468635,3.10569107 C99.8018229,3.10569107 98.4511886,3.36607646 97.4187702,3.89089992 C96.3863517,4.41437248 95.5904385,5.09279293 95.0287214,5.92359455 C94.4670042,6.75304527 94.0868433,7.71015575 93.887831,8.79425055 C93.6881396,9.87699444 93.5896047,10.9954696 93.5896047,12.1525128 L93.5896047,13.2902382 C93.5896047,13.6144535 93.6236338,13.8680438 93.6936073,14.049037 L106.915356,14.049037 C107.386057,14.049037 107.683693,14.129672 107.810028,14.2917797 C107.935684,14.4538873 108,14.7866673 108,15.2912408 C108,15.8667229 107.854898,16.5876966 107.56487,17.4515952 C107.275521,18.3161692 106.80577,19.1535902 106.154396,19.9634529 C105.503021,20.7739911 104.643193,21.4674741 103.575455,22.0436316 C102.507717,22.6204646 101.197768,22.908003 99.6423483,22.908003 L99.6419747,22.908003 Z M39.2434559,22.0225576 C38.8447521,22.0225576 38.5193366,22.00351 38.2659865,21.9676436 C38.0119572,21.9311694 37.8849833,21.7882243 37.8849833,21.5349311 C37.8849833,21.3545863 37.9927692,21.2188212 38.2107997,21.129662 C38.4281509,21.0391519 38.8637432,20.9047377 39.515111,20.7243929 C39.8411379,20.6521199 40.1863935,20.5616098 40.5477332,20.4542135 C40.9097589,20.3461418 41.0911114,20.0929364 41.0911114,19.6964279 C41.0911114,18.9027759 41.0822136,18.0108462 41.0645538,17.0199633 C41.046894,16.0290804 41.0390829,15.010234 41.0390829,13.9646397 C41.0390829,12.9541688 41.0295059,11.9458593 41.0125253,10.9367393 C40.9948655,9.92626841 40.9870545,9.00779358 40.9870545,8.17901831 C40.9870545,7.02467687 41.0855825,5.97820456 41.285274,5.04135753 C41.4849654,4.1045105 41.8281835,3.29390479 42.3178962,2.60764914 C42.8076158,1.92274439 43.4779406,1.40210871 44.3290067,1.04141923 C45.1807519,0.681405196 46.2415619,0.500006754 47.5096707,0.500006754 C48.5977854,0.500006754 49.5669003,0.669159315 50.4186456,1.00553265 C51.2703908,1.34190599 52.0129171,1.71650971 52.647311,2.13055963 C53.2810258,2.54460954 53.798118,2.91448512 54.1967538,3.23870039 C54.5954575,3.5622402 54.9031454,3.72523943 55.1211759,3.72523943 C55.3752052,3.72523943 55.5011059,3.50883925 55.5011059,3.07722767 L55.5011059,1.83399722 C55.5011059,1.58137949 55.5181544,1.37515157 55.5541532,1.21236848 C55.5887936,1.0495854 55.7118619,0.969632567 55.9224209,0.969632567 C56.1784879,0.969632567 56.8550616,1.07559017 57.9526855,1.28835644 C59.0503093,1.50179815 60.5582516,1.7512075 62.4790934,2.03553753 C62.8771179,2.10781052 63.1587236,2.17751005 63.321737,2.24978303 C63.483392,2.32002968 63.5668889,2.46271817 63.5668889,2.67615988 C63.5668889,2.96052369 63.3570974,3.1201862 62.9407339,3.15530952 C62.5236911,3.19178374 61.7904023,3.21015593 60.7396448,3.21015593 C60.4862948,3.21015593 60.186547,3.28023371 59.8428671,3.42545513 C59.497822,3.56932566 59.327079,3.92971794 59.327079,4.5072534 C59.327079,7.24619695 59.3615156,9.97527895 59.4321479,12.6957152 C59.5014287,15.4170971 59.5372169,18.1476651 59.5372169,20.8868788 C59.5372169,21.3907634 59.3916459,21.7055224 59.0989009,21.8325067 C58.8088728,21.9588155 58.5723743,22.0225576 58.391015,22.0225576 C57.8442408,22.0225576 57.308402,22.0041719 56.7799668,21.969724 C56.25289,21.9352762 55.7161682,21.9179847 55.1721108,21.9179847 C54.7007303,21.9179847 54.2384513,21.9352762 53.786089,21.969724 C53.3323683,22.0041719 52.8711081,22.0225576 52.401086,22.0225576 C52.1110579,22.0225576 51.8389885,21.9941753 51.584932,21.9401529 C51.331582,21.886117 51.2049953,21.7701087 51.2049953,21.589764 C51.2049953,21.3736205 51.413048,21.1939512 51.8300907,21.0494052 C52.2464542,20.9055347 52.5636512,20.7966186 52.7810024,20.7243456 C53.4330562,20.5440009 53.9405035,20.4089112 54.30185,20.3190766 C54.6638756,20.2285665 54.9448157,20.1479382 55.1444936,20.0763406 C55.3435059,20.0047431 55.4711658,19.9145302 55.5255036,19.8051076 C55.5791622,19.6977113 55.6072209,19.5711457 55.6072209,19.4272752 C55.6072209,17.4819836 55.5888139,15.5546589 55.5541736,13.6458416 C55.5181748,11.7356733 55.5011263,9.80855125 55.5011263,7.86123331 C55.5011263,7.32154998 55.4374831,6.76146811 55.3111613,6.18531057 C55.1855051,5.60847757 54.9046465,5.09601482 54.4706232,4.64549069 C54.0372791,4.19564201 53.3941232,3.8267796 52.5444156,3.5383631 C51.694708,3.24927115 50.5103474,3.1046036 48.9922847,3.1046036 C47.654216,3.1046036 46.6049528,3.40306402 45.8455819,3.99747893 C45.0855317,4.59187359 44.7067971,5.44699135 44.7067971,6.56418312 C44.7067971,8.97823595 44.7238456,11.3829676 44.7598444,13.7786482 C44.7938055,16.1751394 44.8107861,18.5800061 44.8107861,20.9951397 C44.8107861,21.390277 44.7659574,21.6600714 44.6749416,21.8045971 C44.5832465,21.9491431 44.3551567,22.0220105 43.9904209,22.0220105 C43.5896796,22.0220105 43.1883269,22.0037058 42.7869063,21.969258 C42.3861649,21.9348101 41.9848122,21.9175186 41.5833916,21.9175186 C41.1826502,21.9175186 40.7914179,21.9348101 40.4117325,21.969258 C40.032047,22.0037058 39.6412902,22.0220105 39.2432657,22.0220105 L39.2434559,22.0225576 Z M100.41493,21.6057113 C101.574363,21.6057113 102.533833,21.2902431 103.295242,20.6600497 C104.055292,20.0298563 104.436132,19.2476194 104.436132,18.3107724 C104.436132,17.8062124 104.373508,17.3927704 104.245101,17.0685551 C104.118765,16.7443398 103.856714,16.4752209 103.458697,16.2590977 C103.059993,16.0429541 102.497393,15.888783 101.773342,15.7989484 C101.048611,15.7084383 100.088462,15.6638587 98.8930298,15.6638587 C97.7335967,15.6638587 96.8364114,15.6737202 96.2026967,15.6912819 C95.5689819,15.7088436 95.0978051,15.7360641 94.7901172,15.7725451 C94.4824294,15.8076684 94.3000173,15.8535989 94.2456795,15.9076348 C94.1927001,15.9609952 94.165015,16.0423057 94.165015,16.1503775 C94.165015,16.581989 94.3101174,17.1039756 94.6001454,17.7166074 C94.8894943,18.3285637 95.2963487,18.9230259 95.8227463,19.4991834 C96.3484646,20.0746655 97.0006543,20.569364 97.7797227,20.9840894 C98.5581119,21.3974638 99.4368223,21.6057113 100.414903,21.6057113 L100.41493,21.6057113 Z" id="Shape" fill="#17349C" fill-rule="nonzero" transform="translate(54.000000, 19.000000) scale(-1, 1) rotate(-180.000000) translate(-54.000000, -19.000000) "></path>
                    <rect id="Rectangle" fill="#193AB3" x="125" y="2.5" width="1" height="33"></rect>
                </g>
            </g>
        </g>
    </g>
</svg>
