<svg width="15px" height="15px" viewBox="0 0 15 15" version="1.1" xmlns="http://www.w3.org/2000/svg" xmlns:xlink="http://www.w3.org/1999/xlink">
    <!-- Generator: Sketch 55.2 (78181) - https://sketchapp.com -->
    <title>Icon/Social/Twitter Copy 2</title>
    <desc>Created with Sketch.</desc>
    <g id="Style-Guide" stroke="none" stroke-width="1" fill="none" fill-rule="evenodd">
        <g id="Style-Guide---CSS-WIP" transform="translate(-711.000000, -4171.000000)" fill="#FFFFFF">
            <g id="Icon/Social/Twitter-Copy-2" transform="translate(711.000000, 4171.000000)">
                <path d="M10.0413936,0.416393642 C12.4572686,0.416393642 14.4163936,2.37551864 14.4163936,4.79139364 L14.4163936,10.0413936 C14.4163936,12.4572686 12.4572686,14.4163936 10.0413936,14.4163936 L4.79139364,14.4163936 C2.37551864,14.4163936 0.416393642,12.4572686 0.416393642,10.0413936 L0.416393642,4.79139364 C0.416393642,2.37551864 2.37551864,0.416393642 4.79139364,0.416393642 L10.0413936,0.416393642 Z M7.41639364,3.91639364 C5.48351864,3.91639364 3.91639364,5.48351864 3.91639364,7.41639364 C3.91639364,9.34926864 5.48351864,10.9163936 7.41639364,10.9163936 C9.34926864,10.9163936 10.9163936,9.34926864 10.9163936,7.41639364 C10.9163936,5.48351864 9.34926864,3.91639364 7.41639364,3.91639364 Z M7.41639364,9.60389364 C6.21064364,9.60389364 5.22889364,8.62214364 5.22889364,7.41639364 C5.22889364,6.20976864 6.21064364,5.22889364 7.41639364,5.22889364 C8.62214364,5.22889364 9.60389364,6.20976864 9.60389364,7.41639364 C9.60389364,8.62214364 8.62214364,9.60389364 7.41639364,9.60389364 Z M11.1788936,4.12026864 C11.4364654,4.12026864 11.6452686,3.91146544 11.6452686,3.65389364 C11.6452686,3.39632184 11.4364654,3.18751864 11.1788936,3.18751864 C10.9213218,3.18751864 10.7125186,3.39632184 10.7125186,3.65389364 C10.7125186,3.91146544 10.9213218,4.12026864 11.1788936,4.12026864 Z" id="🎨-Color"></path>
            </g>
        </g>
    </g>
</svg>
