<svg width="16px" height="12px" viewBox="0 0 16 12" version="1.1" xmlns="http://www.w3.org/2000/svg" xmlns:xlink="http://www.w3.org/1999/xlink">
    <!-- Generator: Sketch 55.2 (78181) - https://sketchapp.com -->
    <title>Icon/Social/Twitter</title>
    <desc>Created with Sketch.</desc>
    <defs>
        <path d="M16.0008829,1.57326967 C15.4330109,1.80855114 14.8222482,1.96763826 14.1814621,2.03964611 C14.8351154,1.67290844 15.3377937,1.09349642 15.5736921,0.402723412 C14.9612139,0.741830161 14.2843997,0.987996541 13.5621214,1.12029004 C12.9848134,0.545064516 12.162171,0.185862554 11.2503161,0.185862554 C9.50123603,0.185862554 8.08327164,1.51047212 8.08327164,3.14488292 C8.08327164,3.37765249 8.11157946,3.60288635 8.16476384,3.81974721 C5.53299448,3.69666402 3.19888612,2.51774476 1.63680919,0.72759605 C1.36488256,1.16466697 1.20876065,1.67290844 1.20876065,2.21547924 C1.20876065,3.24200979 1.76805453,4.14796905 2.6172891,4.67798034 C2.09831242,4.66290893 1.60935918,4.52977813 1.18302627,4.30789347 L1.18302627,4.345572 C1.18302627,5.77903065 2.27416402,6.97469592 3.72386749,7.24681862 C3.45794555,7.31463997 3.17829861,7.3506439 2.88921573,7.3506439 C2.68505631,7.3506439 2.48690157,7.33222328 2.29389372,7.29705666 C2.69620787,8.47262672 3.8662644,9.32834795 5.25248972,9.35262966 C4.16821447,10.1455533 2.80257665,10.6186282 1.31770286,10.6186282 C1.06293249,10.6186282 0.809877743,10.6052314 0.561969872,10.5776005 C1.96363583,11.417413 3.62865028,11.9072338 5.41804757,11.9072338 C11.2434536,11.9072338 14.42937,7.39837003 14.42937,3.48817617 C14.42937,3.35923188 14.4259388,3.23279948 14.4207919,3.10552979 C15.0392748,2.68855409 15.5762656,2.1669158 16.0008829,1.57410697 L16.0008829,1.57326967 L16.0008829,1.57326967 Z" id="path-1"></path>
    </defs>
    <g id="Style-Guide" stroke="none" stroke-width="1" fill="none" fill-rule="evenodd">
        <g id="Style-Guide---CSS-WIP" transform="translate(-637.000000, -4174.000000)">
            <g id="Icon/Social/Twitter" transform="translate(637.000000, 4174.000000)">
                <mask id="mask-2" fill="white">
                    <use xlink:href="#path-1"></use>
                </mask>
                <use id="🎨-Color" fill="#FFFFFF" xlink:href="#path-1"></use>
            </g>
        </g>
    </g>
</svg>
