<svg width="20px" height="14px" viewBox="0 0 20 14" version="1.1" xmlns="http://www.w3.org/2000/svg" xmlns:xlink="http://www.w3.org/1999/xlink">
    <!-- Generator: Sketch 55.2 (78181) - https://sketchapp.com -->
    <title>youtube-logo</title>
    <desc>Created with Sketch.</desc>
    <g id="Style-Guide" stroke="none" stroke-width="1" fill="none" fill-rule="evenodd">
        <g id="Style-Guide---CSS-WIP" transform="translate(-743.000000, -4171.000000)" fill="#FFFFFF" fill-rule="nonzero">
            <g id="youtube-logo" transform="translate(743.000000, 4171.000000)">
                <path d="M19.2123422,5.34932646 C19.2053537,4.95636419 19.1747696,4.45951184 19.1213038,3.85922823 C19.0675374,3.25860049 18.9906262,2.72182864 18.8906079,2.24887445 C18.7761618,1.71764697 18.5276189,1.27000571 18.1450922,0.906103611 C17.7625654,0.542125037 17.3173299,0.33113294 16.8094233,0.272821423 C15.2216799,0.0910042028 12.8224055,0 9.61152521,0 C6.4006073,0 4.00129539,0.0910042028 2.41366464,0.272821423 C1.90583321,0.331094703 1.46236366,0.542125037 1.08344386,0.906103611 C0.704373771,1.269891 0.457634423,1.71753226 0.343188245,2.24887445 C0.236031153,2.72198159 0.155475472,3.2587152 0.101859353,3.85922823 C0.04831838,4.45951184 0.0178845637,4.95617301 0.0107833399,5.34932646 C0.0035318256,5.74232696 0,6.28812276 0,6.98686679 C0,7.68553435 0.0035318256,8.2314831 0.0108209125,8.62440712 C0.0179221363,9.01763705 0.0483559526,9.51422175 0.101896926,10.1144671 C0.155513044,10.7150566 0.232424182,11.2518285 0.332555195,11.7248591 C0.447001374,12.2562396 0.695469062,12.7038043 1.07807098,13.0675535 C1.46074804,13.4314556 1.90602107,13.6424859 2.41370221,13.7007592 C4.00133297,13.8827676 6.40049458,13.9737336 9.61156278,13.9737336 C12.8227437,13.9737336 15.2217175,13.8827676 16.8094609,13.7007592 C17.3173675,13.6425242 17.7606492,13.4314556 18.1397193,13.0675535 C18.5187894,12.7037661 18.7653784,12.2559719 18.8798246,11.7248591 C18.9870568,11.2518285 19.0675374,10.7150566 19.1213038,10.1144671 C19.1747696,9.51425998 19.2051283,9.01740763 19.2123422,8.62440712 C19.2195186,8.2314831 19.2231256,7.68553435 19.2231256,6.98686679 C19.2231256,6.28812276 19.2195562,5.74232696 19.2123422,5.34932646 Z M13.4090268,7.57640578 L7.91677494,11.0697053 C7.81660635,11.1424705 7.69490866,11.1788339 7.55194487,11.1788339 C7.44475021,11.1788339 7.333911,11.1496208 7.21950239,11.091424 C6.98354638,10.9605768 6.86560595,10.7566968 6.86560595,10.4802046 L6.86560595,3.49356723 C6.86560595,3.21715152 6.98358396,3.01327151 7.21950239,2.88230958 C7.46270991,2.75111823 7.69505895,2.75845975 7.91677494,2.90414295 L13.4090643,6.39748075 C13.6235288,6.52098645 13.730761,6.71760142 13.730761,6.98690503 C13.730761,7.25609393 13.6234912,7.45278537 13.4090268,7.57640578 Z" id="Shape"></path>
            </g>
        </g>
    </g>
</svg>
