<?xml version="1.0" encoding="UTF-8"?>
<svg width="63px" height="63px" viewBox="0 0 63 63" version="1.1" xmlns="http://www.w3.org/2000/svg" xmlns:xlink="http://www.w3.org/1999/xlink">
    <!-- Generator: Sketch 55.2 (78181) - https://sketchapp.com -->
    <title>Accessibility</title>
    <desc>Created with Sketch.</desc>
    <defs>
        <rect id="path-1" x="0" y="0" width="59" height="59" rx="29.5"></rect>
        <filter x="-12.7%" y="-12.7%" width="125.4%" height="125.4%" filterUnits="objectBoundingBox" id="filter-2">
            <feMorphology radius="0.5" operator="dilate" in="SourceAlpha" result="shadowSpreadOuter1"></feMorphology>
            <feOffset dx="0" dy="0" in="shadowSpreadOuter1" result="shadowOffsetOuter1"></feOffset>
            <feGaussianBlur stdDeviation="2" in="shadowOffsetOuter1" result="shadowBlurOuter1"></feGaussianBlur>
            <feComposite in="shadowBlurOuter1" in2="SourceAlpha" operator="out" result="shadowBlurOuter1"></feComposite>
            <feColorMatrix values="0 0 0 0 0   0 0 0 0 0   0 0 0 0 0  0 0 0 0.0988308566 0" type="matrix" in="shadowBlurOuter1"></feColorMatrix>
        </filter>
    </defs>
    <g id="Accessibility" stroke="none" stroke-width="1" fill="none" fill-rule="evenodd">
        <g id="Group" transform="translate(2.000000, 2.000000)">
            <g id="Rectangle">
                <use fill="black" fill-opacity="1" filter="url(#filter-2)" xlink:href="#path-1"></use>
                <rect stroke="#0028BB" stroke-width="2" stroke-linejoin="square" fill="#F5F5F5" fill-rule="evenodd" x="1" y="1" width="57" height="57" rx="28.5"></rect>
            </g>
        </g>
        <g id="Group-5" transform="translate(15.000000, 12.000000)" fill="#0028BB">
            <path d="M20.1903857,4.25 C20.1903857,6.26187714 18.5594057,7.89285714 16.5475285,7.89285714 C14.5356514,7.89285714 12.9046714,6.26187714 12.9046714,4.25 C12.9046714,2.23812286 14.5356514,0.607142857 16.5475285,0.607142857 C18.5594057,0.607142857 20.1903857,2.23812286 20.1903857,4.25" id="Fill-1"></path>
            <path d="M32.0838806,9.10714286 L17.1546714,9.10714286 L2.22546219,9.10714286 C1.41708942,9.10714286 0.761814231,9.77011324 0.761814231,10.5879791 C0.761814231,11.4058449 1.41708942,12.0688153 2.22546219,12.0688153 C2.22546219,12.0688153 7.42141245,12.587108 10.2023436,12.587108 C12.9832747,12.587108 12.6905451,15.6968641 12.6905451,15.6968641 L12.6905451,20.5836237 C12.6905451,22.3606272 12.2514507,24.2857143 12.2514507,24.2857143 L9.57487769,37.6792857 C9.57414586,37.6834321 9.57326768,37.6872822 9.57253585,37.6912805 L9.54370199,37.8353659 L9.55102023,37.8361063 C9.54633655,37.8845296 9.54370199,37.9336934 9.54370199,37.9834495 C9.54370199,38.8011672 10.1989772,39.4642857 11.0073499,39.4642857 C11.7665441,39.4642857 12.3904973,38.8795035 12.4636797,38.1307927 L12.4709979,38.1315331 C12.4709979,38.1315331 15.0323818,28.2839721 15.7642058,25.9146341 C16.4960298,23.5452962 17.1546714,23.7674216 17.1546714,23.7674216 C17.1546714,23.7674216 17.813313,23.5452962 18.5451369,25.9146341 C19.2769609,28.2839721 21.8383448,38.1315331 21.8383448,38.1315331 L21.8456631,38.1307927 C21.9188455,38.8795035 22.5427986,39.4642857 23.3019928,39.4642857 C24.1103656,39.4642857 24.7656408,38.8011672 24.7656408,37.9834495 C24.7656408,37.9336934 24.7630062,37.8845296 24.7583225,37.8361063 L24.7656408,37.8353659 L24.7368069,37.6912805 C24.7360751,37.6872822 24.7351969,37.6834321 24.7344651,37.6792857 L22.057892,24.2857143 C22.057892,24.2857143 21.6187976,22.3606272 21.6187976,20.5836237 L21.6187976,15.6968641 C21.6187976,15.6968641 21.3260681,12.587108 24.1069992,12.587108 C26.8879303,12.587108 32.0838806,12.0688153 32.0838806,12.0688153 C32.8922533,12.0688153 33.5475285,11.4058449 33.5475285,10.5879791 C33.5475285,9.77011324 32.8922533,9.10714286 32.0838806,9.10714286" id="Fill-3"></path>
        </g>
    </g>
</svg>